<svg xmlns="http://www.w3.org/2000/svg" x="0px" y="0px"
width="100" height="100"
viewBox="0 0 64 64">
<path d="M32,10c12.15,0,22,9.85,22,22s-9.85,22-22,22s-22-9.85-22-22S19.85,10,32,10z M39,34c1.104,0,2-0.895,2-2	c0-1.105-0.896-2-2-2c-0.248,0-1.913,0-5,0c0-3.087,0-4.752,0-5c0-1.104-0.895-2-2-2c-1.104,0-2,0.896-2,2c0,0.248,0,1.913,0,5	c-3.087,0-4.752,0-5,0c-1.104,0-2,0.895-2,2c0,1.105,0.896,2,2,2c0.248,0,1.913,0,5,0c0,3.087,0,4.752,0,5c0,1.104,0.896,2,2,2	c1.105,0,2-0.896,2-2c0-0.248,0-1.913,0-5C37.087,34,38.752,34,39,34z"></path>
</svg>