<svg xmlns="http://www.w3.org/2000/svg" x="0px" y="0px"
width="100" height="100"
viewBox="0 0 64 64">
<path d="M 17 12 C 13.691 12 11 14.691 11 18 L 11 22.304688 C 12.593 20.875688 14.692 20 17 20 L 47 20 C 49.308 20 51.407 20.875688 53 22.304688 L 53 18 C 53 14.691 50.309 12 47 12 L 17 12 z M 17 23 C 13.686 23 11 25.686 11 29 L 11 46 C 11 49.309 13.691 52 17 52 L 40 52 C 40 44.832 45.832 39 53 39 L 53 29 C 53 25.686 50.314 23 47 23 L 17 23 z M 27 28 L 29 28 C 29.552 28 30 28.448 30 29 L 30 31 C 30 31.552 29.552 32 29 32 L 27 32 C 26.448 32 26 31.552 26 31 L 26 29 C 26 28.448 26.448 28 27 28 z M 35 28 L 37 28 C 37.552 28 38 28.448 38 29 L 38 31 C 38 31.552 37.552 32 37 32 L 35 32 C 34.448 32 34 31.552 34 31 L 34 29 C 34 28.448 34.448 28 35 28 z M 43 28 L 45 28 C 45.552 28 46 28.448 46 29 L 46 31 C 46 31.552 45.552 32 45 32 L 43 32 C 42.448 32 42 31.552 42 31 L 42 29 C 42 28.448 42.448 28 43 28 z M 19 35 L 21 35 C 21.552 35 22 35.448 22 36 L 22 38 C 22 38.552 21.552 39 21 39 L 19 39 C 18.448 39 18 38.552 18 38 L 18 36 C 18 35.448 18.448 35 19 35 z M 27 35 L 29 35 C 29.552 35 30 35.448 30 36 L 30 38 C 30 38.552 29.552 39 29 39 L 27 39 C 26.448 39 26 38.552 26 38 L 26 36 C 26 35.448 26.448 35 27 35 z M 35 35 L 37 35 C 37.552 35 38 35.448 38 36 L 38 38 C 38 38.552 37.552 39 37 39 L 35 39 C 34.448 39 34 38.552 34 38 L 34 36 C 34 35.448 34.448 35 35 35 z M 43 35 L 45 35 C 45.552 35 46 35.448 46 36 L 46 38 C 46 38.552 45.552 39 45 39 L 43 39 C 42.448 39 42 38.552 42 38 L 42 36 C 42 35.448 42.448 35 43 35 z M 19 42 L 21 42 C 21.552 42 22 42.448 22 43 L 22 45 C 22 45.552 21.552 46 21 46 L 19 46 C 18.448 46 18 45.552 18 45 L 18 43 C 18 42.448 18.448 42 19 42 z M 27 42 L 29 42 C 29.552 42 30 42.448 30 43 L 30 45 C 30 45.552 29.552 46 29 46 L 27 46 C 26.448 46 26 45.552 26 45 L 26 43 C 26 42.448 26.448 42 27 42 z M 35 42 L 37 42 C 37.552 42 38 42.448 38 43 L 38 45 C 38 45.552 37.552 46 37 46 L 35 46 C 34.448 46 34 45.552 34 45 L 34 43 C 34 42.448 34.448 42 35 42 z M 53 42 C 47.477 42 43 46.477 43 52 C 43 57.523 47.477 62 53 62 C 58.523 62 63 57.523 63 52 C 63 46.477 58.523 42 53 42 z M 53 46 C 53.553 46 54 46.448 54 47 L 54 51 L 58 51 C 58.553 51 59 51.448 59 52 C 59 52.552 58.553 53 58 53 L 54 53 L 54 57 C 54 57.552 53.553 58 53 58 C 52.447 58 52 57.552 52 57 L 52 53 L 48 53 C 47.447 53 47 52.552 47 52 C 47 51.448 47.447 51 48 51 L 52 51 L 52 47 C 52 46.448 52.447 46 53 46 z"></path>
</svg>