<svg xmlns="http://www.w3.org/2000/svg" x="0px" y="0px"
width="100" height="100"
viewBox="0 0 64 64">
<path d="M 17 15 C 16.48825 15 15.976437 15.195438 15.585938 15.585938 C 14.804937 16.366937 14.804937 17.633063 15.585938 18.414062 L 29.171875 32 L 15.585938 45.585938 C 14.804938 46.366938 14.804937 47.633063 15.585938 48.414062 C 15.976937 48.805062 16.488 49 17 49 C 17.512 49 18.023062 48.805062 18.414062 48.414062 L 32 34.828125 L 45.585938 48.414062 C 45.976938 48.805062 46.488 49 47 49 C 47.512 49 48.023063 48.805062 48.414062 48.414062 C 49.195063 47.633062 49.195062 46.366937 48.414062 45.585938 L 34.828125 32 L 48.414062 18.414062 C 49.195063 17.633063 49.195062 16.366937 48.414062 15.585938 C 47.633062 14.804937 46.366937 14.804937 45.585938 15.585938 L 32 29.171875 L 18.414062 15.585938 C 18.023563 15.195437 17.51175 15 17 15 z"></path>
</svg>