<svg xmlns="http://www.w3.org/2000/svg" x="0px" y="0px"
width="48" height="48"
viewBox="0 0 64 64">
<path d="M 18 12 C 14.691 12 12 14.691 12 18 L 12 46 C 12 49.309 14.691 52 18 52 L 40 52 C 40.53 52 41.039062 51.789062 41.414062 51.414062 L 51.414062 41.414062 C 51.789062 41.039062 52 40.53 52 40 L 52 18 C 52 14.691 49.309 12 46 12 L 18 12 z M 18 16 L 46 16 C 47.103 16 48 16.897 48 18 L 48 38 L 42 38 C 39.239 38 37 40.239 37 43 L 37 48 L 18 48 C 16.897 48 16 47.103 16 46 L 16 18 C 16 16.897 16.897 16 18 16 z M 23.5 23 C 22.672 23 22 23.671 22 24.5 C 22 25.329 22.672 26 23.5 26 L 40.5 26 C 41.328 26 42 25.329 42 24.5 C 42 23.671 41.328 23 40.5 23 L 23.5 23 z M 23.5 30 C 22.672 30 22 30.671 22 31.5 C 22 32.329 22.672 33 23.5 33 L 40.5 33 C 41.328 33 42 32.329 42 31.5 C 42 30.671 41.328 30 40.5 30 L 23.5 30 z M 23.5 37 C 22.672 37 22 37.671 22 38.5 C 22 39.329 22.672 40 23.5 40 L 31.5 40 C 32.328 40 33 39.329 33 38.5 C 33 37.671 32.328 37 31.5 37 L 23.5 37 z"></path>
</svg>