<svg xmlns="http://www.w3.org/2000/svg" x="0px" y="0px"
width="48" height="48"
viewBox="0 0 64 64">
<path d="M 26.451172 15.041016 C 25.939297 15.049266 25.432328 15.251437 25.048828 15.648438 L 10.5625 30.609375 C 9.8115 31.384375 9.8115 32.615625 10.5625 33.390625 L 25.048828 48.351562 C 25.440828 48.756562 25.962375 48.960938 26.484375 48.960938 C 26.985375 48.960938 27.487953 48.772484 27.876953 48.396484 C 28.669953 47.628484 28.690875 46.361359 27.921875 45.568359 L 16.720703 34 L 52 34 C 53.104 34 54 33.104 54 32 C 54 30.896 53.104 30 52 30 L 16.720703 30 L 27.921875 18.431641 C 28.689875 17.638641 28.669953 16.372516 27.876953 15.603516 C 27.479953 15.219516 26.963047 15.032766 26.451172 15.041016 z"></path>
</svg>