<svg xmlns="http://www.w3.org/2000/svg" x="0px" y="0px"
width="24" height="24"
viewBox="0 0 24 24">
    <path d="M20,4H4C2.897,4,2,4.897,2,6v12c0,1.103,0.897,2,2,2h16c1.103,0,2-0.897,2-2V6C22,4.897,21.103,4,20,4z M13.847,10.847 l-2.305,1.866l0.769,2.836c0.097,0.354-0.29,0.646-0.611,0.463l-2.688-1.539L6.37,16.024c-0.313,0.184-0.698-0.09-0.619-0.442 l0.637-2.871l-2.239-1.867c-0.282-0.236-0.137-0.691,0.23-0.724l3.039-0.279l1.212-2.68c0.147-0.325,0.612-0.325,0.76,0l1.212,2.68 l3.018,0.277C13.992,10.153,14.135,10.613,13.847,10.847z M15,16c-0.552,0-1-0.448-1-1c0-0.552,0.448-1,1-1s1,0.448,1,1 C16,15.552,15.552,16,15,16z M19,16c-0.552,0-1-0.448-1-1c0-0.552,0.448-1,1-1s1,0.448,1,1C20,15.552,19.552,16,19,16z"></path>
</svg>