<svg xmlns="http://www.w3.org/2000/svg" x="0px" y="0px"
width="100" height="100"
viewBox="0 0 64 64">
<path d="M 22 12 C 18.835899 12 16.158015 14.11203 15.294922 17 L 10 17 C 8.896 17 8 17.896 8 19 C 8 20.104 8.896 21 10 21 L 15.294922 21 C 16.158015 23.88797 18.835899 26 22 26 C 25.164101 26 27.841985 23.88797 28.705078 21 L 54 21 C 55.104 21 56 20.104 56 19 C 56 17.896 55.104 17 54 17 L 28.705078 17 C 27.841985 14.11203 25.164101 12 22 12 z M 22 16 C 23.654 16 25 17.346 25 19 C 25 20.654 23.654 22 22 22 C 20.346 22 19 20.654 19 19 C 19 17.346 20.346 16 22 16 z M 42 25 C 38.835899 25 36.158015 27.11203 35.294922 30 L 10 30 C 8.896 30 8 30.896 8 32 C 8 33.104 8.896 34 10 34 L 35.294922 34 C 36.158015 36.88797 38.835899 39 42 39 C 45.164101 39 47.841985 36.88797 48.705078 34 L 54 34 C 55.104 34 56 33.104 56 32 C 56 30.896 55.104 30 54 30 L 48.705078 30 C 47.841985 27.11203 45.164101 25 42 25 z M 42 29 C 43.654 29 45 30.346 45 32 C 45 33.654 43.654 35 42 35 C 40.346 35 39 33.654 39 32 C 39 30.346 40.346 29 42 29 z M 26 38 C 22.835899 38 20.158015 40.11203 19.294922 43 L 10 43 C 8.896 43 8 43.896 8 45 C 8 46.104 8.896 47 10 47 L 19.294922 47 C 20.158015 49.88797 22.835899 52 26 52 C 29.164101 52 31.841985 49.88797 32.705078 47 L 54 47 C 55.104 47 56 46.104 56 45 C 56 43.896 55.104 43 54 43 L 32.705078 43 C 31.841985 40.11203 29.164101 38 26 38 z M 26 42 C 27.654 42 29 43.346 29 45 C 29 46.654 27.654 48 26 48 C 24.346 48 23 46.654 23 45 C 23 43.346 24.346 42 26 42 z"></path>
</svg>