<svg xmlns="http://www.w3.org/2000/svg" x="0px" y="0px"
width="100" height="100"
viewBox="0 0 64 64">
<path d="M55.5 25h-15c-.828 0-1.5-.671-1.5-1.5s.672-1.5 1.5-1.5h15c.828 0 1.5.671 1.5 1.5S56.328 25 55.5 25zM55.5 32h-15c-.828 0-1.5-.671-1.5-1.5s.672-1.5 1.5-1.5h15c.828 0 1.5.671 1.5 1.5S56.328 32 55.5 32zM49.5 39h-9c-.828 0-1.5-.671-1.5-1.5s.672-1.5 1.5-1.5h9c.828 0 1.5.671 1.5 1.5S50.328 39 49.5 39zM23.5 35c-4.687 0-8.5-4.038-8.5-9s3.813-9 8.5-9 8.5 4.038 8.5 9S28.187 35 23.5 35zM34.431 52H12.569c-3.166 0-5.619-3.304-4.135-6.387 2.48-5.15 8.394-8.477 15.065-8.477s12.585 3.327 15.065 8.477C40.121 48.844 37.437 52 34.431 52z"></path>
</svg>